<?xml version="1.0" encoding="UTF-8"?>
<svg id="Layer_1" xmlns="http://www.w3.org/2000/svg" version="1.1" viewBox="0 0 1262.31 220.56">
  <!-- Generator: Adobe Illustrator 30.1.0, SVG Export Plug-In . SVG Version: 2.1.1 Build 136)  -->
  <defs>
    <style>
      .st0 {
        fill: #4c560e;
      }
    </style>
  </defs>
  <g>
    <path class="st0" d="M50.1,169.04c-10.23-5.9-18.23-14.16-24-24.76-5.78-10.6-8.67-22.7-8.67-36.29s2.89-25.08,8.67-35.62c5.78-10.54,13.78-18.77,24-24.67,10.22-5.9,21.81-8.86,34.77-8.86s24.54,2.95,34.77,8.86c10.22,5.91,18.22,14.13,24,24.67,5.78,10.54,8.67,22.42,8.67,35.62s-2.89,25.69-8.67,36.29c-5.78,10.61-13.78,18.86-24,24.76-10.23,5.91-21.81,8.86-34.77,8.86s-24.55-2.95-34.77-8.86ZM127.25,82.64c-4.76-9.02-11.21-16.1-19.34-21.24-8.13-5.14-17.08-7.71-26.86-7.71-8.89,0-16.83,2.03-23.81,6.1-6.99,4.06-12.42,9.88-16.29,17.43-3.87,7.56-5.81,16.42-5.81,26.58,0,11.05,2.16,21.05,6.48,30.01,4.32,8.95,10.51,16.07,18.57,21.34,8.06,5.27,17.55,7.91,28.48,7.91,8.89,0,16.79-2.03,23.72-6.1,6.92-4.06,12.32-9.87,16.19-17.43,3.87-7.55,5.81-16.41,5.81-26.58,0-11.17-2.38-21.27-7.14-30.29Z"/>
    <path class="st0" d="M243.47,50.63c7.43,6.6,11.14,15.69,11.14,27.24,0,8.26-1.81,15.69-5.43,22.29-3.62,6.61-8.7,11.75-15.24,15.43-6.54,3.68-14,5.52-22.39,5.52-3.3,0-6.1-.22-8.38-.67-2.29-.44-3.68-.73-4.19-.86-2.29-.51-3.87-.76-4.76-.76-1.53,0-2.61.45-3.24,1.33-.64.89-.95,2.41-.95,4.57v29.53c0,11.94.5,19.05,1.52,21.34l-.38.57c-3.56-.76-6.8-1.14-9.72-1.14s-6.16.38-9.72,1.14l-.38-.57c1.01-2.29,1.52-9.4,1.52-21.34V62.45c0-11.94-.51-19.05-1.52-21.34l.38-.57c3.55.76,6.92,1.14,10.1,1.14l10.29-.38c6.86-.38,13.97-.57,21.34-.57,12.57,0,22.58,3.3,30.01,9.91ZM228.61,102.36c4.89-4.89,7.33-11.97,7.33-21.24s-2.48-15.72-7.43-20.1c-4.95-4.38-12.07-6.57-21.34-6.57-4.7,0-8.26.41-10.67,1.24-2.41.83-4.1,2.26-5.05,4.29-.95,2.03-1.43,5.02-1.43,8.95v23.62c0,6.22,1.4,10.64,4.19,13.24,2.79,2.6,7.74,3.91,14.86,3.91,8.13,0,14.64-2.44,19.53-7.34Z"/>
    <path class="st0" d="M345.67,157.89c-1.27,2.67-2.42,5.84-3.43,9.53l-1.14,4.76-.76,3.81c-3.05-.64-14.61-.95-34.67-.95h-23.43c-3.18,0-6.54.38-10.1,1.14l-.38-.57c1.01-2.29,1.52-9.4,1.52-21.34V62.45c0-11.94-.51-19.05-1.52-21.34l.38-.57c3.55.76,6.92,1.14,10.1,1.14h21.53c20.07,0,31.63-.31,34.67-.95l.76,3.81,1.53,6.48c.89,3.18,1.91,5.72,3.05,7.62l-.57.57c-3.81-.89-10.99-1.46-21.53-1.71l-20.77-.38c-3.81,0-6.51.86-8.1,2.57-1.59,1.71-2.38,4.6-2.38,8.67v22.48c0,2.42.38,4.1,1.14,5.05s2.1,1.43,4,1.43c4.32,0,10.54-.13,18.67-.38,11.81-.38,18.92-1.08,21.34-2.1l.57.38c-.76,3.3-1.14,6.41-1.14,9.34s.38,6.22,1.14,9.53l-.57.38c-2.41-1.01-9.53-1.72-21.34-2.1-7.88-.25-13.72-.38-17.53-.38-4.19,0-6.29,2.41-6.29,7.24v31.81c0,5.72,2.6,8.57,7.81,8.57l25.34-.38c9.53-.25,16.76-.89,21.72-1.91l.38.57Z"/>
    <path class="st0" d="M479.02,154.27c0,11.94.51,19.05,1.53,21.34l-.38.57c-3.56-.76-6.92-1.14-10.1-1.14h-5.33l-68.58-89.35c-2.54-3.17-5.02-4.76-7.43-4.76-1.27,0-2.26.41-2.95,1.24-.7.83-1.05,1.94-1.05,3.33l.38,68.77c.12,12.07.7,19.18,1.71,21.34l-.38.57c-3.3-.76-6.35-1.14-9.14-1.14s-6.03.38-9.34,1.14l-.38-.57c1.01-2.29,1.52-9.4,1.52-21.34V62.45c0-11.94-.51-19.05-1.52-21.34l.38-.57c3.55.76,6.92,1.14,10.1,1.14h5.33l67.44,88.4c2.03,2.67,3.62,4.45,4.76,5.33,1.14.89,2.29,1.33,3.43,1.33,1.4,0,2.44-.41,3.14-1.24.7-.82,1.05-2.25,1.05-4.29l-.95-68.77c-.13-11.68-.76-18.79-1.91-21.34l.38-.57c3.55.76,6.79,1.14,9.72,1.14s6.16-.38,9.72-1.14l.38.57c-1.02,2.29-1.53,9.4-1.53,21.34v91.83Z"/>
    <path class="st0" d="M765.63,50.63c7.43,6.6,11.14,15.69,11.14,27.24,0,8.26-1.81,15.69-5.43,22.29-3.62,6.61-8.7,11.75-15.24,15.43-6.54,3.68-14,5.52-22.39,5.52-3.3,0-6.1-.22-8.38-.67-2.29-.44-3.68-.73-4.19-.86-2.29-.51-3.87-.76-4.76-.76-1.53,0-2.61.45-3.24,1.33-.64.89-.95,2.41-.95,4.57v29.53c0,11.94.5,19.05,1.52,21.34l-.38.57c-3.56-.76-6.8-1.14-9.72-1.14s-6.16.38-9.72,1.14l-.38-.57c1.01-2.29,1.52-9.4,1.52-21.34V62.45c0-11.94-.51-19.05-1.52-21.34l.38-.57c3.55.76,6.92,1.14,10.1,1.14l10.29-.38c6.86-.38,13.97-.57,21.34-.57,12.57,0,22.58,3.3,30.01,9.91ZM750.77,102.36c4.89-4.89,7.33-11.97,7.33-21.24s-2.48-15.72-7.43-20.1c-4.95-4.38-12.07-6.57-21.34-6.57-4.7,0-8.26.41-10.67,1.24-2.41.83-4.1,2.26-5.05,4.29-.95,2.03-1.43,5.02-1.43,8.95v23.62c0,6.22,1.4,10.64,4.19,13.24,2.79,2.6,7.74,3.91,14.86,3.91,8.13,0,14.64-2.44,19.53-7.34Z"/>
    <path class="st0" d="M820.88,169.04c-10.23-5.9-18.23-14.16-24-24.76-5.78-10.6-8.67-22.7-8.67-36.29s2.89-25.08,8.67-35.62c5.78-10.54,13.78-18.77,24-24.67,10.22-5.9,21.81-8.86,34.77-8.86s24.54,2.95,34.77,8.86c10.22,5.91,18.22,14.13,24,24.67,5.78,10.54,8.67,22.42,8.67,35.62s-2.89,25.69-8.67,36.29c-5.78,10.61-13.78,18.86-24,24.76-10.23,5.91-21.81,8.86-34.77,8.86s-24.55-2.95-34.77-8.86ZM898.04,82.64c-4.76-9.02-11.21-16.1-19.34-21.24-8.13-5.14-17.08-7.71-26.86-7.71-8.89,0-16.83,2.03-23.81,6.1-6.99,4.06-12.41,9.88-16.29,17.43-3.88,7.56-5.81,16.42-5.81,26.58,0,11.05,2.16,21.05,6.48,30.01,4.32,8.95,10.51,16.07,18.57,21.34,8.06,5.27,17.56,7.91,28.48,7.91,8.89,0,16.79-2.03,23.72-6.1,6.92-4.06,12.32-9.87,16.19-17.43,3.87-7.55,5.81-16.41,5.81-26.58,0-11.17-2.38-21.27-7.14-30.29Z"/>
    <path class="st0" d="M944.04,41.11l.38-.57c3.55.76,6.79,1.14,9.72,1.14s6.16-.38,9.72-1.14l.38.57c-1.02,2.29-1.52,9.4-1.52,21.34v91.83c0,11.94.5,19.05,1.52,21.34l-.38.57c-3.56-.76-6.8-1.14-9.72-1.14s-6.16.38-9.72,1.14l-.38-.57c1.01-2.29,1.52-9.4,1.52-21.34V62.45c0-11.94-.51-19.05-1.52-21.34Z"/>
    <path class="st0" d="M1103.31,154.27c0,11.94.51,19.05,1.53,21.34l-.38.57c-3.56-.76-6.92-1.14-10.1-1.14h-5.33l-68.58-89.35c-2.54-3.17-5.02-4.76-7.43-4.76-1.27,0-2.26.41-2.95,1.24-.7.83-1.05,1.94-1.05,3.33l.38,68.77c.12,12.07.7,19.18,1.71,21.34l-.38.57c-3.3-.76-6.35-1.14-9.14-1.14s-6.03.38-9.34,1.14l-.38-.57c1.01-2.29,1.52-9.4,1.52-21.34V62.45c0-11.94-.51-19.05-1.52-21.34l.38-.57c3.55.76,6.92,1.14,10.1,1.14h5.33l67.44,88.4c2.03,2.67,3.62,4.45,4.76,5.33,1.14.89,2.29,1.33,3.43,1.33,1.4,0,2.44-.41,3.14-1.24.7-.82,1.05-2.25,1.05-4.29l-.95-68.77c-.13-11.68-.76-18.79-1.91-21.34l.38-.57c3.55.76,6.79,1.14,9.72,1.14s6.16-.38,9.72-1.14l.38.57c-1.02,2.29-1.53,9.4-1.53,21.34v91.83Z"/>
    <path class="st0" d="M1234.18,40.92c-1.27,2.67-2.41,5.84-3.43,9.53l.38-1.14c-.64,2.41-1.02,4.57-1.14,6.48-.13,1.91-.19,3.11-.19,3.62l-.57.19c-1.65-1.01-8.64-1.78-20.96-2.29-2.67-.12-6.03-.19-10.1-.19s-6.99.86-8.76,2.57c-1.78,1.71-2.67,4.41-2.67,8.1v86.49c0,11.94.5,19.05,1.52,21.34l-.38.57c-3.56-.76-6.8-1.14-9.72-1.14s-6.16.38-9.72,1.14l-.38-.57c1.01-2.29,1.52-9.4,1.52-21.34v-86.49c0-3.68-.89-6.38-2.67-8.1-1.78-1.72-4.7-2.57-8.76-2.57l-16,.19c-9.53.38-16.76,1.08-21.72,2.1l-.38-.57c1.27-2.67,2.41-5.84,3.43-9.53l1.72-7.62h86.87c10.03,0,17.27-.44,21.72-1.33l.38.57Z"/>
  </g>
  <path class="st0" d="M670.93,122.67l-.35-.52c-4.04.81-10.62,1.21-19.74,1.21h-28.34c-1.95,0-3.53-1.58-3.53-3.52h0c0-.94.37-1.83,1.03-2.5l32.59-32.67c8.25-7.59,13.23-11.59,14.94-12l.24-.49c-.32-.32-1.06-1.14-2.2-2.45-1.15-1.31-2.29-2.94-3.43-4.9l.49.98c-1.71-3.02-3.02-5.8-3.92-8.33l-.61-.12c-2.29,3.43-6.65,8.37-13.1,14.82l-24.71,24.71c-1.38,1.38-3.61,1.38-4.99,0h0c-.66-.66-1-1.56-.94-2.49l2.75-43.63c.46-11.2,2.93-24.74,3.85-26.25l-.17-.52c-.46,0-1.56-.06-3.29-.17-1.73-.11-3.7-.46-5.89-1.04l1.04.35c-3.35-.92-6.23-1.96-8.66-3.12l-.52.35c.81,4.04,1.21,17.82,1.21,26.94v21.15c0,1.95-1.58,3.52-3.52,3.52h0c-.94,0-1.83-.37-2.5-1.03l-32.67-32.59c-7.59-8.25-11.59-13.23-12-14.94l-.49-.24c-.32.32-1.14,1.06-2.45,2.2-1.31,1.15-2.94,2.29-4.9,3.43l.98-.49c-3.02,1.71-5.8,3.02-8.33,3.92l-.12.61c3.43,2.29,8.37,6.65,14.82,13.1l18.14,18.14c1.6,1.6,2.46,4.7,1.91,6.89h0c-.66.66-1.56,1.04-2.49,1.04l-46.15.06c-11.2-.46-17.55-1.16-19.05-2.08l-.52.17c0,.46-.06,1.56-.17,3.29-.11,1.73-.46,3.7-1.04,5.89l.35-1.04c-.92,3.35-1.96,6.23-3.12,8.66l.35.52c4.04-.81,10.62-1.21,19.74-1.21h28.22c1.32,0,2.61.66,3.23,1.83.77,1.46.46,3.13-.6,4.19l-32.59,32.67c-8.25,7.59-13.23,11.59-14.94,12l-.24.49c.32.32,1.06,1.14,2.2,2.45,1.14,1.31,2.29,2.94,3.43,4.9l-.49-.98c1.71,3.02,3.02,5.8,3.92,8.33l.61.12c2.29-3.43,6.65-8.37,13.1-14.82l16.52-16.52c1.94-1.94,5.77-3.52,8.51-3.52h0c.66.66,1.04,1.56,1.04,2.49l.06,46.15c-.46,11.2-1.16,17.55-2.08,19.05l.17.52c.46,0,1.56.06,3.29.17,1.73.11,3.7.46,5.89,1.04l-1.04-.35c3.35.92,6.23,1.96,8.66,3.12l.52-.35c-.81-4.04-1.21-10.62-1.21-19.74v-28.35c0-1.95,1.58-3.52,3.52-3.52h0c.94,0,1.83.37,2.5,1.03l32.67,32.59c7.59,8.25,11.59,13.23,12,14.94l.49.24c.32-.33,1.14-1.06,2.45-2.2,1.31-1.15,2.94-2.29,4.9-3.43l-.98.49c3.02-1.71,5.8-3.02,8.33-3.92l.12-.61c-3.43-2.29-8.37-6.65-14.82-13.1l-21.5-21.5c-1.3-1.3-.38-3.52,1.46-3.52h0c.66-.66,1.56-1.04,2.49-1.04l46.15-.06c11.2.46,17.55,1.16,19.05,2.08l.52-.17c0-.46.06-1.56.17-3.29.11-1.73.46-3.7,1.04-5.89l-.35,1.04c.92-3.35,1.96-6.23,3.12-8.66ZM602.77,104.83c0,9.17-7.46,16.63-16.63,16.63s-16.63-7.46-16.63-16.63,7.46-16.63,16.63-16.63,16.63,7.46,16.63,16.63Z"/>
</svg>